<svg width="42" height="47" viewBox="0 0 42 47" fill="none" xmlns="http://www.w3.org/2000/svg">
<path fill-rule="evenodd" clip-rule="evenodd" d="M10 0C4.47715 0 0 4.47715 0 10V32C0 37.5228 4.47715 42 10 42H14.9956L19.2329 46.2342C20.209 47.2096 21.791 47.2096 22.7671 46.2342L27.0044 42H32C37.5228 42 42 37.5228 42 32V10C42 4.47715 37.5228 0 32 0H10Z" fill="white"/>
<rect x="6" y="6" width="30" height="30" rx="8" fill="#39C3F2"/>
<g clip-path="url(#clip0_704_6630)">
<path d="M23.3038 23.3177C24.7328 23.2924 25.0473 21.3266 23.6988 20.8584L22.1418 22.547C22.3361 23.0044 22.7942 23.3177 23.3038 23.3177Z" fill="white"/>
<path d="M27.9153 20.7665C27.7151 19.5656 27.1525 18.6386 26.2789 18.0599C25.872 18.5015 24.7509 19.7169 24.3278 20.176C25.0085 20.5449 25.4443 21.2594 25.4443 22.0565C25.4491 23.9039 23.2197 24.885 21.8611 23.6375C21.7316 23.9241 21.5499 24.1879 21.321 24.4168C20.4139 25.4002 17.604 25.638 16.4045 25.603C16.3694 24.4006 16.6082 21.592 17.5908 20.6865C18.0922 20.1854 18.7463 19.9284 19.4048 19.9158C20.1254 19.249 21.1247 18.3243 21.8424 17.6601C20.8455 17.9228 19.3853 18.6183 18.94 17.9617C18.7316 17.4698 19.6791 16.3268 18.9315 15.3676C18.3188 14.5983 16.9476 14.7428 16.1727 15.2893C12.3998 17.8943 11.8953 23.6175 15.189 26.8013C19.2211 30.8644 26.2546 29.0237 27.7998 23.5177C27.8837 23.1711 28.1239 22.0351 27.9153 20.7665Z" fill="white"/>
<path d="M21.321 20.6865C21.566 20.9315 21.7568 21.216 21.8875 21.5258C22.3865 20.9853 25.0214 18.1266 25.4589 17.6525L27.7984 15.1152C28.0539 14.838 28.0607 14.4277 27.8139 14.1807C27.5666 13.9337 27.1557 13.9407 26.8785 14.1971L23.4571 17.3635C22.7142 18.0508 21.2366 19.4188 20.4785 20.1203C20.785 20.2486 21.0719 20.4374 21.321 20.6865Z" fill="white"/>
<path d="M20.2301 20.9722C19.5626 20.6473 18.7538 20.768 18.2125 21.3074C17.6534 21.8017 17.3359 23.683 17.3037 24.7033C18.327 24.67 20.2037 24.3545 20.6993 23.7945C21.0316 23.4622 21.2145 23.0206 21.2145 22.5511C21.2144 22.081 21.0313 21.6394 20.6993 21.3077V21.3074C20.5586 21.1665 20.3998 21.0548 20.2301 20.9722Z" fill="white"/>
</g>
<defs>
<clipPath id="clip0_704_6630">
<rect width="15" height="15" fill="white" transform="translate(13 14)"/>
</clipPath>
</defs>
</svg>
