<svg width="202" height="202" viewBox="0 0 202 202" fill="none" xmlns="http://www.w3.org/2000/svg">
<circle opacity="0.5" cx="101" cy="101" r="101" fill="#EBF5FC"/>
<mask id="mask0_704_6073" style="mask-type:alpha" maskUnits="userSpaceOnUse" x="0" y="0" width="202" height="202">
<circle cx="101" cy="101" r="101" fill="#DADADA"/>
</mask>
<g mask="url(#mask0_704_6073)">
<g clip-path="url(#clip0_704_6073)">
<path d="M103.93 185.313H39.6942C33.4856 185.313 28.4529 180.28 28.4529 174.072V162.83H114.728L103.93 185.313Z" fill="#D3DCFB"/>
<path d="M174.606 95.379V142.607V174.071H39.6942C33.4856 174.071 28.4529 169.038 28.4529 162.829V95.379L107.151 67.2744L174.606 95.379Z" fill="#EBF5FC"/>
<path d="M48.3051 117.863H42.333C40.878 117.863 39.6982 116.683 39.6982 115.228V109.256C39.6982 107.801 40.878 106.621 42.333 106.621H48.3051C49.7601 106.621 50.9399 107.801 50.9399 109.256V115.228C50.9399 116.683 49.7601 117.863 48.3051 117.863Z" fill="#3C58A0"/>
<path d="M70.7887 117.863H64.8167C63.3616 117.863 62.1819 116.683 62.1819 115.228V109.256C62.1819 107.801 63.3616 106.621 64.8167 106.621H70.7887C72.2438 106.621 73.4235 107.801 73.4235 109.256V115.228C73.4235 116.683 72.2438 117.863 70.7887 117.863Z" fill="#3C58A0"/>
<path d="M93.2719 117.863H87.2998C85.8448 117.863 84.665 116.683 84.665 115.228V109.256C84.665 107.801 85.8448 106.621 87.2998 106.621H93.2719C94.727 106.621 95.9067 107.801 95.9067 109.256V115.228C95.9067 116.683 94.7273 117.863 93.2719 117.863Z" fill="#3C58A0"/>
<path d="M115.756 117.863H109.783C108.328 117.863 107.149 116.683 107.149 115.228V109.256C107.149 107.801 108.328 106.621 109.783 106.621H115.756C117.211 106.621 118.39 107.801 118.39 109.256V115.228C118.39 116.683 117.211 117.863 115.756 117.863Z" fill="#3C58A0"/>
<path d="M138.235 117.863H132.263C130.808 117.863 129.628 116.683 129.628 115.228V109.256C129.628 107.801 130.808 106.621 132.263 106.621H138.235C139.69 106.621 140.87 107.801 140.87 109.256V115.228C140.87 116.683 139.691 117.863 138.235 117.863Z" fill="#3C58A0"/>
<path d="M160.719 117.863H154.747C153.292 117.863 152.112 116.683 152.112 115.228V109.256C152.112 107.801 153.292 106.621 154.747 106.621H160.719C162.174 106.621 163.353 107.801 163.353 109.256V115.228C163.353 116.683 162.174 117.863 160.719 117.863Z" fill="#3C58A0"/>
<path d="M48.3051 140.346H42.333C40.878 140.346 39.6982 139.166 39.6982 137.711V131.739C39.6982 130.284 40.878 129.104 42.333 129.104H48.3051C49.7601 129.104 50.9399 130.284 50.9399 131.739V137.711C50.9399 139.166 49.7601 140.346 48.3051 140.346Z" fill="#3C58A0"/>
<path d="M70.7887 140.346H64.8167C63.3616 140.346 62.1819 139.166 62.1819 137.711V131.739C62.1819 130.284 63.3616 129.104 64.8167 129.104H70.7887C72.2438 129.104 73.4235 130.284 73.4235 131.739V137.711C73.4235 139.166 72.2438 140.346 70.7887 140.346Z" fill="#3C58A0"/>
<path d="M93.2719 140.346H87.2998C85.8448 140.346 84.665 139.166 84.665 137.711V131.739C84.665 130.284 85.8448 129.104 87.2998 129.104H93.2719C94.727 129.104 95.9067 130.284 95.9067 131.739V137.711C95.9067 139.166 94.7273 140.346 93.2719 140.346Z" fill="#3C58A0"/>
<path d="M118.39 140.346V131.915C118.39 130.362 117.132 129.104 115.58 129.104H109.959C108.407 129.104 107.149 130.362 107.149 131.915V137.536C107.149 139.088 108.407 140.346 109.959 140.346H118.39Z" fill="#3C58A0"/>
<path d="M48.3051 162.83H42.333C40.878 162.83 39.6982 161.65 39.6982 160.195V154.223C39.6982 152.768 40.878 151.588 42.333 151.588H48.3051C49.7601 151.588 50.9399 152.768 50.9399 154.223V160.195C50.9399 161.65 49.7601 162.83 48.3051 162.83Z" fill="#3C58A0"/>
<path d="M70.7887 162.83H64.8167C63.3616 162.83 62.1819 161.65 62.1819 160.195V154.223C62.1819 152.768 63.3616 151.588 64.8167 151.588H70.7887C72.2438 151.588 73.4235 152.768 73.4235 154.223V160.195C73.4235 161.65 72.2438 162.83 70.7887 162.83Z" fill="#3C58A0"/>
<path d="M93.2719 162.83H87.2998C85.8448 162.83 84.665 161.65 84.665 160.195V154.223C84.665 152.768 85.8448 151.588 87.2998 151.588H93.2719C94.727 151.588 95.9067 152.768 95.9067 154.223V160.195C95.9067 161.65 94.7273 162.83 93.2719 162.83Z" fill="#3C58A0"/>
<path d="M160.639 106.621H154.826C154.475 106.621 154.14 106.69 153.831 106.811C154.837 107.208 155.55 108.187 155.55 109.335V115.148C155.55 116.295 154.837 117.274 153.831 117.671C154.14 117.793 154.475 117.862 154.826 117.862H160.639C162.139 117.862 163.354 116.647 163.354 115.148V109.335C163.354 107.836 162.138 106.621 160.639 106.621Z" fill="#2A428C"/>
<path d="M138.156 106.621H132.343C131.991 106.621 131.656 106.69 131.347 106.811C132.354 107.208 133.066 108.187 133.066 109.335V115.148C133.066 116.295 132.353 117.274 131.347 117.671C131.656 117.793 131.991 117.862 132.343 117.862H138.156C139.655 117.862 140.87 116.647 140.87 115.148V109.335C140.87 107.836 139.655 106.621 138.156 106.621Z" fill="#2A428C"/>
<path d="M115.676 106.621H109.863C109.511 106.621 109.177 106.69 108.868 106.811C109.874 107.208 110.587 108.187 110.587 109.335V115.148C110.587 116.295 109.874 117.274 108.868 117.671C109.177 117.793 109.511 117.862 109.863 117.862H115.676C117.175 117.862 118.391 116.647 118.391 115.148V109.335C118.39 107.836 117.175 106.621 115.676 106.621Z" fill="#2A428C"/>
<path d="M93.1926 106.621H87.3796C87.0278 106.621 86.6929 106.69 86.3843 106.811C87.3904 107.208 88.1035 108.187 88.1035 109.335V115.148C88.1035 116.295 87.3904 117.274 86.3843 117.671C86.6929 117.793 87.0278 117.862 87.3796 117.862H93.1926C94.6918 117.862 95.907 116.647 95.907 115.148V109.335C95.9067 107.836 94.6918 106.621 93.1926 106.621Z" fill="#2A428C"/>
<path d="M70.7089 106.621H64.8959C64.5442 106.621 64.2092 106.69 63.9006 106.811C64.9068 107.208 65.6195 108.187 65.6195 109.335V115.148C65.6195 116.295 64.9065 117.274 63.9006 117.671C64.2092 117.793 64.5442 117.862 64.8959 117.862H70.7089C72.2081 117.862 73.4234 116.647 73.4234 115.148V109.335C73.4234 107.836 72.2081 106.621 70.7089 106.621Z" fill="#2A428C"/>
<path d="M48.2258 106.621H42.4128C42.061 106.621 41.7261 106.69 41.4175 106.811C42.4236 107.208 43.1367 108.187 43.1367 109.335V115.148C43.1367 116.295 42.4236 117.274 41.4175 117.671C41.7261 117.793 42.061 117.862 42.4128 117.862H48.2258C49.7249 117.862 50.9402 116.647 50.9402 115.148V109.335C50.9399 107.836 49.7246 106.621 48.2258 106.621Z" fill="#2A428C"/>
<path d="M48.2258 129.104H42.4128C42.061 129.104 41.7261 129.173 41.4175 129.295C42.4236 129.692 43.1367 130.671 43.1367 131.818V137.632C43.1367 138.779 42.4236 139.758 41.4175 140.155C41.7261 140.277 42.061 140.346 42.4128 140.346H48.2258C49.7249 140.346 50.9402 139.131 50.9402 137.632V131.819C50.9399 130.32 49.7246 129.104 48.2258 129.104Z" fill="#2A428C"/>
<path d="M48.2258 151.588H42.4128C42.061 151.588 41.7261 151.657 41.4175 151.779C42.4236 152.176 43.1367 153.155 43.1367 154.302V160.115C43.1367 161.263 42.4236 162.242 41.4175 162.639C41.7261 162.761 42.061 162.83 42.4128 162.83H48.2258C49.7249 162.83 50.9402 161.615 50.9402 160.116V154.302C50.9399 152.803 49.7246 151.588 48.2258 151.588Z" fill="#2A428C"/>
<path d="M70.7089 129.104H64.8959C64.5442 129.104 64.2092 129.173 63.9006 129.295C64.9068 129.692 65.6195 130.671 65.6195 131.818V137.632C65.6195 138.779 64.9065 139.758 63.9006 140.155C64.2092 140.277 64.5442 140.346 64.8959 140.346H70.7089C72.2081 140.346 73.4234 139.131 73.4234 137.632V131.819C73.4234 130.32 72.2081 129.104 70.7089 129.104Z" fill="#2A428C"/>
<path d="M70.7089 151.588H64.8959C64.5442 151.588 64.2092 151.657 63.9006 151.779C64.9068 152.176 65.6195 153.155 65.6195 154.302V160.115C65.6195 161.263 64.9065 162.242 63.9006 162.639C64.2092 162.761 64.5442 162.83 64.8959 162.83H70.7089C72.2081 162.83 73.4234 161.615 73.4234 160.116V154.302C73.4234 152.803 72.2081 151.588 70.7089 151.588Z" fill="#2A428C"/>
<path d="M93.1926 129.104H87.3796C87.0278 129.104 86.6929 129.173 86.3843 129.295C87.3904 129.692 88.1035 130.671 88.1035 131.818V137.632C88.1035 138.779 87.3904 139.758 86.3843 140.155C86.6929 140.277 87.0278 140.346 87.3796 140.346H93.1926C94.6918 140.346 95.907 139.131 95.907 137.632V131.819C95.9067 130.32 94.6918 129.104 93.1926 129.104Z" fill="#2A428C"/>
<path d="M118.39 140.346V131.818C118.39 130.319 117.175 129.104 115.676 129.104H109.863C109.511 129.104 109.176 129.173 108.867 129.295C109.874 129.692 110.587 130.671 110.587 131.818V137.632C110.587 138.779 109.874 139.758 108.867 140.155C109.176 140.277 109.511 140.346 109.863 140.346H118.39V140.346Z" fill="#2A428C"/>
<path d="M93.1926 151.588H87.3796C87.0278 151.588 86.6929 151.657 86.3843 151.779C87.3904 152.176 88.1035 153.155 88.1035 154.302V160.115C88.1035 161.263 87.3904 162.242 86.3843 162.639C86.6929 162.761 87.0278 162.83 87.3796 162.83H93.1926C94.6918 162.83 95.907 161.615 95.907 160.116V154.302C95.9067 152.803 94.6918 151.588 93.1926 151.588Z" fill="#2A428C"/>
<path d="M166.797 92.1255V142.607V174.071H174.606V142.607V95.3791L166.797 92.1255Z" fill="#D3DCFB"/>
<path d="M174.606 95.3791V67.2745C174.606 61.066 169.573 56.0332 163.365 56.0332H39.6942C33.4856 56.0332 28.4529 61.066 28.4529 67.2745V95.3791H174.606Z" fill="#FF4155"/>
<path d="M63.8744 69.8193H56.5572C55.1516 69.8193 54.0127 68.6801 54.0127 67.2748C54.0127 65.8694 55.1519 64.7302 56.5572 64.7302H63.8744C65.28 64.7302 66.4189 65.8694 66.4189 67.2748C66.4189 68.6801 65.2797 69.8193 63.8744 69.8193Z" fill="#E80054"/>
<path d="M81.8509 69.8193H74.5338C73.1281 69.8193 71.9893 68.6801 71.9893 67.2748C71.9893 65.8694 73.1285 64.7302 74.5338 64.7302H81.8509C83.2566 64.7302 84.3955 65.8694 84.3955 67.2748C84.3955 68.6801 83.2566 69.8193 81.8509 69.8193Z" fill="#E80054"/>
<path d="M128.518 69.8193H121.201C119.795 69.8193 118.656 68.6801 118.656 67.2748C118.656 65.8694 119.795 64.7302 121.201 64.7302H128.518C129.924 64.7302 131.063 65.8694 131.063 67.2748C131.063 68.6801 129.924 69.8193 128.518 69.8193Z" fill="#E80054"/>
<path d="M146.495 69.8193H139.177C137.772 69.8193 136.633 68.6801 136.633 67.2748C136.633 65.8694 137.772 64.7302 139.177 64.7302H146.495C147.9 64.7302 149.039 65.8694 149.039 67.2748C149.039 68.6801 147.9 69.8193 146.495 69.8193Z" fill="#E80054"/>
<path d="M76.2302 65.8695C76.2302 69.7499 73.0846 72.8955 69.2042 72.8955C65.3238 72.8955 62.1782 69.7499 62.1782 65.8695V51.8172C62.1779 47.9369 65.3235 44.7913 69.2039 44.7913C73.0842 44.7913 76.2298 47.9369 76.2298 51.8172V65.8695H76.2302Z" fill="#EBF5FC"/>
<path d="M140.874 65.8695C140.874 69.7499 137.728 72.8955 133.848 72.8955C129.967 72.8955 126.822 69.7499 126.822 65.8695V51.8172C126.822 47.9369 129.967 44.7913 133.848 44.7913C137.728 44.7913 140.874 47.9369 140.874 51.8172V65.8695H140.874Z" fill="#EBF5FC"/>
<path d="M133.848 44.7913C132.405 44.7913 131.065 45.2273 129.949 45.973C131.835 47.233 133.078 49.3794 133.078 51.8176V65.8695C133.078 68.3074 131.835 70.454 129.949 71.7141C131.065 72.4594 132.405 72.8958 133.848 72.8958C137.728 72.8958 140.874 69.7502 140.874 65.8699V51.8172C140.874 47.9369 137.728 44.7913 133.848 44.7913V44.7913Z" fill="#D3DCFB"/>
<path d="M69.2038 44.7913C67.7613 44.7913 66.4215 45.2273 65.3057 45.973C67.1912 47.233 68.4338 49.3794 68.4338 51.8176V65.8695C68.4338 68.3074 67.1912 70.454 65.3057 71.7141C66.4212 72.4594 67.7613 72.8958 69.2038 72.8958C73.0842 72.8958 76.2298 69.7502 76.2298 65.8699V51.8172C76.2301 47.9369 73.0845 44.7913 69.2038 44.7913V44.7913Z" fill="#D3DCFB"/>
<path d="M163.365 56.033H155.559C161.767 56.033 166.8 61.0657 166.8 67.2743V95.3792H174.606V67.2746C174.606 61.0661 169.573 56.033 163.365 56.033Z" fill="#E80054"/>
<path d="M28.4526 81.5925H174.606V86.6819H28.4526V81.5925Z" fill="#E80054"/>
<path d="M143.686 213.417C166.968 213.417 185.843 194.543 185.843 171.261C185.843 147.978 166.968 129.104 143.686 129.104C120.404 129.104 101.53 147.978 101.53 171.261C101.53 194.543 120.404 213.417 143.686 213.417Z" fill="#4FABF7"/>
<path d="M143.686 202.176C160.76 202.176 174.601 188.335 174.601 171.261C174.601 154.187 160.76 140.346 143.686 140.346C126.612 140.346 112.771 154.187 112.771 171.261C112.771 188.335 126.612 202.176 143.686 202.176Z" fill="#EBF5FC"/>
<path d="M143.686 168.184C142.28 168.184 141.142 167.045 141.142 165.64V151.588C141.142 150.182 142.281 149.043 143.686 149.043C145.092 149.043 146.231 150.182 146.231 151.588V165.64C146.231 167.045 145.091 168.184 143.686 168.184Z" fill="#3C58A0"/>
<path d="M157.738 173.805H149.307C147.901 173.805 146.762 172.666 146.762 171.261C146.762 169.856 147.901 168.716 149.307 168.716H157.738C159.144 168.716 160.283 169.856 160.283 171.261C160.283 172.666 159.144 173.805 157.738 173.805Z" fill="#3C58A0"/>
<path d="M143.686 129.104C142.37 129.104 141.069 129.168 139.784 129.286C161.237 131.255 178.039 149.294 178.039 171.261C178.039 193.227 161.237 211.267 139.784 213.236C141.069 213.354 142.37 213.417 143.686 213.417C166.968 213.417 185.842 194.543 185.842 171.261C185.842 147.979 166.968 129.104 143.686 129.104Z" fill="#1886EA"/>
<path d="M143.686 140.346C142.366 140.346 141.064 140.429 139.787 140.59C155.02 142.507 166.803 155.508 166.803 171.261C166.803 187.014 155.02 200.015 139.787 201.932C141.064 202.092 142.366 202.176 143.686 202.176C160.76 202.176 174.601 188.335 174.601 171.261C174.601 154.187 160.76 140.346 143.686 140.346Z" fill="#D3DCFB"/>
<path d="M143.686 176.882C146.791 176.882 149.307 174.365 149.307 171.261C149.307 168.156 146.791 165.64 143.686 165.64C140.582 165.64 138.065 168.156 138.065 171.261C138.065 174.365 140.582 176.882 143.686 176.882Z" fill="#FFDD40"/>
</g>
</g>
<defs>
<clipPath id="clip0_704_6073">
<rect width="168.626" height="168.626" fill="white" transform="translate(22.8347 44.7913)"/>
</clipPath>
</defs>
</svg>
