<svg width="18" height="19" viewBox="0 0 18 19" fill="none" xmlns="http://www.w3.org/2000/svg">
<g clip-path="url(#clip0_704_6844)">
<path d="M17.2303 16.0314L10.298 9.09914L2.19889 1H1.56593L1.43669 1.32841C1.09558 2.19522 0.949832 3.08179 1.01526 3.89216C1.08985 4.81588 1.44077 5.61561 2.03014 6.20498L8.35277 12.5276L9.18671 11.6937L15.032 18.2298C15.6134 18.8112 16.6143 18.8458 17.2303 18.2298C17.8364 17.6236 17.8364 16.6375 17.2303 16.0314Z" fill="white"/>
<path d="M5.65957 10.927L0.707715 15.8789C0.10166 16.4849 0.10166 17.4711 0.707715 18.0771C1.28345 18.6529 2.27944 18.7037 2.90601 18.0771L7.85789 13.1253L5.65957 10.927Z" fill="white"/>
<path d="M17.1761 3.8061L14.3671 6.61505L13.6343 5.88227L16.4433 3.07329L15.7105 2.34052L12.9016 5.14946L12.1688 4.41668L14.9778 1.60774L14.245 0.875L10.5812 4.53888C10.1329 4.9871 9.8653 5.58225 9.82746 6.21475C9.81789 6.375 9.78157 6.53262 9.72131 6.68255L12.1014 9.0626C12.2513 9.00228 12.409 8.96599 12.5692 8.95643C13.2017 8.91869 13.7968 8.65098 14.245 8.20276L17.9089 4.53892L17.1761 3.8061Z" fill="white"/>
</g>
<defs>
<clipPath id="clip0_704_6844">
<rect width="17.6789" height="17.6789" fill="white" transform="translate(0.247803 0.863281)"/>
</clipPath>
</defs>
</svg>
