<svg width="42" height="47" viewBox="0 0 42 47" fill="none" xmlns="http://www.w3.org/2000/svg">
<path fill-rule="evenodd" clip-rule="evenodd" d="M10 0C4.47715 0 0 4.47715 0 10V32C0 37.5228 4.47715 42 10 42H14.9956L19.2329 46.2342C20.209 47.2096 21.791 47.2096 22.7671 46.2342L27.0044 42H32C37.5228 42 42 37.5228 42 32V10C42 4.47715 37.5228 0 32 0H10Z" fill="white"/>
<rect x="6" y="6" width="30" height="30" rx="8" fill="#29D697"/>
<g clip-path="url(#clip0_704_6611)">
<path d="M27.6102 26.7534L21.7284 20.8716L14.8566 13.9998H14.3195L14.2099 14.2784C13.9205 15.0139 13.7968 15.7661 13.8523 16.4537C13.9156 17.2374 14.2133 17.916 14.7134 18.416L20.078 23.7806L20.7855 23.073L25.7451 28.6187C26.2384 29.1121 27.0876 29.1413 27.6102 28.6187C28.1245 28.1044 28.1245 27.2677 27.6102 26.7534Z" fill="white"/>
<path d="M17.5918 22.5388L13.3903 26.7403C12.8761 27.2545 12.8761 28.0913 13.3903 28.6055C13.8788 29.094 14.7239 29.1371 15.2555 28.6055L19.457 24.404L17.5918 22.5388Z" fill="white"/>
<path d="M27.3631 16.497L24.9798 18.8803L24.358 18.2585L26.7414 15.8752L26.1196 15.2535L23.7363 17.6368L23.1146 17.015L25.4979 14.6317L24.8762 14.01L21.7675 17.1187C21.3872 17.499 21.1601 18.004 21.128 18.5406C21.1199 18.6766 21.0891 18.8103 21.038 18.9375L23.0574 20.9569C23.1846 20.9058 23.3183 20.875 23.4543 20.8669C23.9909 20.8348 24.4959 20.6077 24.8762 20.2274L27.9849 17.1187L27.3631 16.497Z" fill="white"/>
</g>
<defs>
<clipPath id="clip0_704_6611">
<rect width="15" height="15" fill="white" transform="translate(13 14)"/>
</clipPath>
</defs>
</svg>
