<svg width="42" height="47" viewBox="0 0 42 47" fill="none" xmlns="http://www.w3.org/2000/svg">
<path fill-rule="evenodd" clip-rule="evenodd" d="M10 0C4.47715 0 0 4.47715 0 10V32C0 37.5228 4.47715 42 10 42H14.9956L19.2329 46.2342C20.209 47.2096 21.791 47.2096 22.7671 46.2342L27.0044 42H32C37.5228 42 42 37.5228 42 32V10C42 4.47715 37.5228 0 32 0H10Z" fill="white"/>
<rect x="6" y="6" width="30" height="30" rx="8" fill="#6B7AED"/>
<g clip-path="url(#clip0_704_6600)">
<path d="M18.014 16.8148V24.3036C17.5372 23.8698 16.904 23.6051 16.2103 23.6051C14.7309 23.6051 13.5273 24.8086 13.5273 26.288C13.5273 27.7674 14.7309 28.971 16.2103 28.971C17.6879 28.971 18.8901 27.7704 18.8931 26.2936H18.8933V20.9424L26.5981 18.627V22.4986C26.1214 22.0649 25.4882 21.8001 24.7944 21.8001C23.315 21.8001 22.1115 23.0037 22.1115 24.4831C22.1115 25.9624 23.315 27.166 24.7944 27.166C26.2688 27.166 27.469 25.9706 27.4771 24.498H27.4774V13.9709L18.014 16.8148Z" fill="white"/>
</g>
<defs>
<clipPath id="clip0_704_6600">
<rect width="15" height="15" fill="white" transform="translate(13 14)"/>
</clipPath>
</defs>
</svg>
