<svg width="42" height="47" viewBox="0 0 42 47" fill="none" xmlns="http://www.w3.org/2000/svg">
<path fill-rule="evenodd" clip-rule="evenodd" d="M10 0C4.47715 0 0 4.47715 0 10V32C0 37.5228 4.47715 42 10 42H14.9956L19.2329 46.2342C20.209 47.2096 21.791 47.2096 22.7671 46.2342L27.0044 42H32C37.5228 42 42 37.5228 42 32V10C42 4.47715 37.5228 0 32 0H10Z" fill="white"/>
<rect x="6" y="6" width="30" height="30" rx="8" fill="#EE544A"/>
<g clip-path="url(#clip0_704_6645)">
<path d="M20.0303 16.008C19.9325 15.3634 19.7345 14.711 19.4462 14.0735C17.949 14.284 16.5939 14.9364 15.5167 15.8948L19.238 19.6162C19.9651 18.6915 20.2461 17.4286 20.0303 16.008Z" fill="white"/>
<path d="M19.2419 20.8621C18.3531 21.5959 17.2097 21.9793 15.925 21.9793C15.5846 21.9793 15.2344 21.9524 14.8764 21.8981C14.2508 21.803 13.6203 21.6248 13.0015 21.3706C13.0008 21.4132 12.9999 21.4558 12.9999 21.4986C12.9999 23.4115 13.7165 25.1568 14.8953 26.4817L19.8784 21.4986L19.2419 20.8621Z" fill="white"/>
<path d="M18.6167 20.2362L14.8953 16.5149C13.9369 17.5921 13.2845 18.9472 13.074 20.4444C13.7115 20.7327 14.364 20.9307 15.0084 21.0285C16.4291 21.2443 17.692 20.9632 18.6167 20.2362Z" fill="white"/>
<path d="M25.9914 21.9685C24.5707 21.7527 23.3078 22.0338 22.3832 22.7609L26.1045 26.4822C27.0629 25.405 27.7153 24.0499 27.9259 22.5527C27.2884 22.2644 26.6359 22.0664 25.9914 21.9685Z" fill="white"/>
<path d="M21.1362 22.7572L20.4999 22.1208L15.5167 27.104C16.8416 28.2828 18.5869 28.9994 20.4999 28.9994C20.5427 28.9994 20.5853 28.9985 20.6279 28.9978C20.3736 28.379 20.1954 27.7484 20.1004 27.1229C19.8408 25.4133 20.208 23.8814 21.1362 22.7572Z" fill="white"/>
<path d="M19.8634 20.2409L20.4998 20.8773L25.4829 15.8942C24.158 14.7153 22.4127 13.9988 20.4998 13.9988C20.457 13.9988 20.4144 13.9997 20.3718 14.0004C20.626 14.6192 20.8042 15.2497 20.8993 15.8753C21.1588 17.5848 20.7916 19.1167 19.8634 20.2409Z" fill="white"/>
<path d="M20.9691 26.9903C21.067 27.6347 21.265 28.2872 21.5533 28.9248C23.0505 28.7142 24.4056 28.0618 25.4827 27.1034L21.7614 23.3821C21.0344 24.3067 20.7534 25.5696 20.9691 26.9903Z" fill="white"/>
<path d="M21.758 22.1344C22.8821 21.2062 24.4141 20.839 26.1236 21.0986C26.7492 21.1936 27.3797 21.3719 27.9985 21.6261C27.9992 21.5835 28.0001 21.5409 28.0001 21.498C28.0001 19.5851 27.2835 17.8398 26.1047 16.5149L21.1216 21.4981L21.758 22.1344Z" fill="white"/>
</g>
<defs>
<clipPath id="clip0_704_6645">
<rect width="15" height="15" fill="white" transform="translate(13 14)"/>
</clipPath>
</defs>
</svg>
